<svg xmlns="http://www.w3.org/2000/svg" viewBox="0 0 179.37 54.07"><defs><style>.cls-1{fill:#f9f8f8;}</style></defs><title>Asset 8</title><g id="Layer_2" data-name="Layer 2"><g id="Layer_1-2" data-name="Layer 1"><path class="cls-1" d="M36.77,0c4.15,0,8.3,0,12.45,0a14.16,14.16,0,0,1,7.52,26.2c-1.17.73-.9,1-.13,1.81,4.13,4.12,4.1,8.59,0,12.68l-12,12a3.88,3.88,0,0,1-4.31,1.05,4,4,0,0,1-2.68-3.37,4.23,4.23,0,0,1,1.54-3.72l9.68-9.67c2.13-2.13,2-3,.08-5.28a8.46,8.46,0,0,0-8.17-3.37,38.11,38.11,0,0,1-6.84,0,5.17,5.17,0,0,0-4.29,1.84c-3.43,3.52-6.93,7-10.4,10.44a8.05,8.05,0,0,1-6.26,2.56,5,5,0,0,1-3-1.07c-3-2.35-5.81-4.89-8.54-7.52a4,4,0,0,1-.18-5.79A4,4,0,0,1,7,29C8.51,30.48,10,32,11.54,33.57c1.11,1.14,2.11,1.17,3.27,0,2.89-3,5.85-5.89,8.79-8.82A13.7,13.7,0,0,1,34.21,20.3c4.79.17,9.59.05,14.39,0,3.89,0,6.71-2.56,6.73-6.07S52.5,8.14,48.51,8.14c-8.24,0-16.48,0-24.73,0-2.57,0-4.25-1.3-4.55-3.44A4.05,4.05,0,0,1,23.44,0C27.88,0,32.33,0,36.77,0Z"/><path class="cls-1" d="M152.84,0c4.09,0,8.18,0,12.27,0,7,0,13.1,5.11,14.09,11.73a14.2,14.2,0,0,1-10.11,16.08,16.83,16.83,0,0,1-4.84.61c-7.54,0-15.08.05-22.62-.05a3.24,3.24,0,0,0-3.38,2.1c-2.06,4.24-4.26,8.41-6.37,12.62-.74,1.48-1.7,2.66-3.46,2.86a3.83,3.83,0,0,1-3.82-1.63,4,4,0,0,1-.24-4.44c2-3.77,3.85-7.57,5.77-11.36l1.74-3.42a8.11,8.11,0,0,1,7.86-4.81q12.54.08,25.08,0c4.66,0,7.65-4.26,6-8.39a6.17,6.17,0,0,0-6-3.79H139.58c-2.3,0-3.72-1-4.25-2.87a4,4,0,0,1,4-5.23C143.83,0,148.33,0,152.84,0Z"/><path class="cls-1" d="M106.66,46c-2.06-.06-4.26-1.64-5.67-4.41Q94.47,28.76,88,15.92c-1.59-3.12-3.2-6.22-4.77-9.33C81.89,4,82.44,1.64,84.54.53S89.05.2,90.41,2.85q8.09,15.84,16.17,31.7c.3.58.35,1.54,1.19,1.57s1-.93,1.25-1.5q7.92-15.45,15.79-30.93c.24-.46.45-.94.72-1.39A4.05,4.05,0,1,1,132.72,6c-3.85,7.64-7.75,15.25-11.64,22.87-2.24,4.4-4.46,8.82-6.76,13.2C113,44.69,110.63,46,106.66,46Z"/><path class="cls-1" d="M64.45,4.16a4,4,0,0,1,2.93-4A3.89,3.89,0,0,1,71.88,2c1.87,3.47,3.64,7,5.43,10.52q6.93,13.59,13.83,27.2c1,2,.85,3.6-.44,5a4,4,0,0,1-4.63.93,4.29,4.29,0,0,1-2.15-2.17L67,10.23c-.66-1.29-1.3-2.59-2-3.87A3.75,3.75,0,0,1,64.45,4.16Z"/></g></g></svg>