<?xml version="1.0" encoding="UTF-8"?>
<svg version="1.1" xmlns="http://www.w3.org/2000/svg" width="512" height="512">
<path d="M0 0 C12.16888218 6.50211144 23.33838409 15.27465851 34.6015625 23.19140625 C38.82058787 26.15420496 43.05915937 29.08674544 47.3125 32 C54.89761216 37.19689936 62.443638 42.44925219 69.98681641 47.70678711 C75.04225824 51.22812619 80.10763776 54.73308187 85.19775391 58.20410156 C112.83827577 77.07426888 112.83827577 77.07426888 115.5 88.625 C115.9032317 93.77380487 115.85019747 98.90339752 115.79296875 104.0625 C115.78736471 105.55321829 115.78309843 107.04394215 115.78010559 108.53466797 C115.76872028 112.434261 115.73930868 116.33351209 115.70599365 120.23297119 C115.67515553 124.22167334 115.66157106 128.21043142 115.64648438 132.19921875 C115.6144319 140.0079674 115.56331346 147.81643556 115.5 155.625 C116.67826859 155.61611755 117.85653717 155.60723511 119.07051086 155.5980835 C130.20715185 155.51678536 141.34373215 155.45693288 152.48060322 155.41775131 C158.20537556 155.39693006 163.92990718 155.36871236 169.65454102 155.32324219 C175.18534377 155.27958951 180.71591585 155.25582186 186.24687767 155.24549103 C188.35067561 155.23813444 190.45446179 155.22376917 192.55816078 155.20207977 C218.53901654 154.9450128 218.53901654 154.9450128 228.84765625 164.83203125 C235.88386387 172.46706505 236.97631517 179.84667008 236.80859375 189.9296875 C236.10101727 198.40269199 231.88325203 205.0864127 225.5 210.625 C219.20427687 214.53436274 213.53444003 216.73874862 206.11973572 216.77217102 C205.02787964 216.77932632 203.93602356 216.78648163 202.81108093 216.79385376 C201.61779678 216.79654266 200.42451263 216.79923157 199.19506836 216.80200195 C197.30411942 216.81185875 197.30411942 216.81185875 195.37496948 216.82191467 C191.19660709 216.84291547 187.01824452 216.85331648 182.83984375 216.86328125 C181.39755294 216.86733094 179.95526231 216.87144792 178.51297188 216.87563133 C171.7325135 216.89467789 164.95206595 216.90890746 158.17158598 216.9172433 C150.36552784 216.92700019 142.55975443 216.95328115 134.75379652 216.99374419 C128.70773176 217.02399985 122.66174816 217.03872127 116.61560923 217.04202431 C113.01075594 217.04436494 109.40620699 217.05319469 105.80143547 217.07848549 C101.77100896 217.10630553 97.74121007 217.1019064 93.71069336 217.0949707 C91.94202156 217.11418579 91.94202156 217.11418579 90.13761902 217.13378906 C79.61449815 217.06805412 70.87979922 214.82937287 63.15234375 207.41796875 C53.10534009 196.51590095 55.17027437 186.04131047 54.5 170.625 C39.65 185.475 24.8 200.325 9.5 215.625 C13.58076945 220.38589769 17.6327742 224.88365879 22.08447266 229.25952148 C22.71290573 229.88167542 23.34133881 230.50382935 23.98881531 231.14483643 C25.34145304 232.48371883 26.69516416 233.82151755 28.04985428 235.15832329 C30.19726205 237.27887815 32.34008388 239.40396552 34.48153687 241.53053284 C40.5661535 247.57260504 46.65340514 253.61193601 52.75683594 259.63500977 C56.5006822 263.330221 60.23459506 267.03522208 63.96229172 270.74672127 C65.37875923 272.15332422 66.79886659 273.55627205 68.22273636 274.95538139 C70.21599577 276.91472633 72.19633255 278.88633549 74.17431641 280.86108398 C74.75830704 281.42912247 75.34229767 281.99716095 75.94398499 282.58241272 C83.22845749 289.92118907 85.80363048 297.51021283 85.81469727 307.79125977 C85.51530391 322.54302576 73.85486173 331.42070592 64.11767578 341.20019531 C63.0867537 342.23903774 62.05600713 343.27805437 61.02542114 344.31723022 C57.66907754 347.69954146 54.30750789 351.07663215 50.9453125 354.453125 C49.78187447 355.6219306 48.61844143 356.79074116 47.45501328 357.95955658 C42.61531046 362.820839 37.77418722 367.68069949 32.92933846 372.53685379 C26.01224749 379.47020146 19.10380613 386.41191923 12.20707333 393.36551976 C7.34003554 398.27130582 2.46340524 403.16742471 -2.42040265 408.05651546 C-5.33040094 410.97015653 -8.23611557 413.88778137 -11.1316185 416.81583405 C-13.85400882 419.56839604 -16.58815076 422.30872624 -19.33153152 425.04036331 C-20.33193733 426.04054924 -21.32812804 427.04497325 -22.31956482 428.05405045 C-30.08550976 435.95051917 -37.67705812 441.58111879 -49.0625 441.9375 C-58.02702277 441.80547463 -65.40712623 438.59508241 -71.84765625 432.41796875 C-78.88386387 424.78293495 -79.97631517 417.40332992 -79.80859375 407.3203125 C-78.763119 394.80108323 -68.78707753 386.75664822 -60.36157227 378.37304688 C-59.58026443 377.59159302 -58.7989566 376.81013916 -57.99397278 376.00500488 C-55.43714974 373.44887283 -52.87681394 370.89629097 -50.31640625 368.34375 C-48.53257232 366.56178315 -46.74896053 364.77959389 -44.96556091 362.99719238 C-40.76730822 358.80235442 -36.56683693 354.60974686 -32.36525911 350.41824007 C-27.5772188 345.64142468 -22.79205928 340.86172782 -18.00712502 336.08180141 C-8.17459125 326.25968576 1.66150736 316.44114659 11.5 306.625 C8.1943682 302.70879008 4.87111894 298.87072313 1.23876953 295.25024414 C0.45841339 294.46996353 -0.32194275 293.68968292 -1.12594604 292.88575745 C-1.94805573 292.06880905 -2.77016541 291.25186066 -3.6171875 290.41015625 C-4.47434357 289.55441513 -5.33149963 288.69867401 -6.21463013 287.81700134 C-8.93239954 285.10479535 -11.65363891 282.3961017 -14.375 279.6875 C-16.22679342 277.84072631 -18.07835834 275.99372347 -19.9296875 274.14648438 C-24.45048435 269.63666799 -28.97412946 265.12972431 -33.5 260.625 C-36.39178446 261.93439849 -38.45104258 263.32907249 -40.68447399 265.57734489 C-41.29299873 266.18497103 -41.90152346 266.79259716 -42.52848834 267.4186362 C-43.1877229 268.08710704 -43.84695746 268.75557789 -44.52616882 269.44430542 C-45.23377454 270.15373012 -45.94138026 270.86315481 -46.67042857 271.59407723 C-49.04636007 273.97843923 -51.41506357 276.36985622 -53.78393555 278.76123047 C-55.48372075 280.46976311 -57.18398368 282.17782059 -58.88468933 283.88543701 C-62.54979589 287.56705011 -66.21199398 291.25153098 -69.87192345 294.93828964 C-75.66032419 300.76862894 -81.4585332 306.58915904 -87.258255 312.40823364 C-89.24332384 314.40018243 -91.22831646 316.39220716 -93.21327686 318.38426399 C-93.70934463 318.88210341 -94.2054124 319.37994284 -94.71651253 319.8928683 C-100.36223461 325.55908293 -106.00561987 331.22762273 -111.64819336 336.89697266 C-112.16393753 337.41515938 -112.6796817 337.93334611 -113.21105448 338.46723546 C-121.56388069 346.86004634 -129.9107477 355.25876577 -138.25630786 363.65880083 C-146.82977549 372.28774748 -155.41289546 380.90701572 -164.00415069 389.51825249 C-169.29985632 394.82701626 -174.58744096 400.14361723 -179.86477248 405.47064783 C-183.91332464 409.55585934 -187.97489195 413.62792762 -192.04135323 417.69530487 C-193.70454572 419.36306177 -195.3634458 421.03511226 -197.01766205 422.71177292 C-199.27996623 425.00351744 -201.55729494 427.27923373 -203.83891296 429.55172729 C-204.48699392 430.21573669 -205.13507487 430.87974609 -205.80279464 431.56387699 C-212.24545602 437.91613426 -219.93726436 441.65186659 -229.0625 441.9375 C-238.02702277 441.80547463 -245.40712623 438.59508241 -251.84765625 432.41796875 C-258.88386387 424.78293495 -259.97631517 417.40332992 -259.80859375 407.3203125 C-258.64347331 393.36836392 -246.15415738 384.13323949 -236.83851624 374.84326172 C-235.65669347 373.66100233 -234.47509072 372.47852297 -233.29368776 371.29584408 C-230.06229469 368.0622241 -226.82780729 364.83171516 -223.59278858 361.60172296 C-220.09890258 358.11216726 -216.60791921 354.61970984 -213.11657715 351.12760925 C-207.07236894 345.08287744 -201.02633679 339.03997499 -194.97905159 332.99832153 C-186.23576221 324.26316934 -177.49524508 315.52524752 -168.7553957 306.78665364 C-154.57448235 292.60792732 -140.39133864 278.43143424 -126.20678711 264.25634766 C-112.43022296 250.48896664 -98.65471255 236.72053266 -84.88061523 222.95068359 C-84.03116056 222.10149164 -83.18170588 221.25229969 -82.30651016 220.37737465 C-78.04492708 216.11709663 -73.78336468 211.85679794 -69.52181256 207.59648895 C-34.18441377 172.26945191 1.156607 136.94603998 36.5 101.625 C34.11086212 99.20589914 31.82103473 97.00221221 29.0234375 95.06640625 C28.36110107 94.60419678 27.69876465 94.1419873 27.01635742 93.66577148 C26.30970947 93.17794189 25.60306152 92.6901123 24.875 92.1875 C23.35744047 91.1285099 21.84053643 90.06857998 20.32421875 89.0078125 C19.53708496 88.45770508 18.74995117 87.90759766 17.93896484 87.34082031 C13.82972256 84.44995397 9.75798493 81.50757632 5.6875 78.5625 C4.92937012 78.014729 4.17124023 77.46695801 3.39013672 76.90258789 C-2.39681086 72.71513012 -2.39681086 72.71513012 -4.4831543 70.89282227 C-6.38302393 69.39880224 -6.38302393 69.39880224 -8.44317341 69.88332653 C-11.98403381 71.16012946 -14.2995998 74.08197228 -16.86987305 76.73364258 C-17.49973618 77.37109909 -18.1295993 78.0085556 -18.77854919 78.66532898 C-20.14589862 80.05079189 -21.50983807 81.43962654 -22.87076378 82.83139992 C-25.0291081 85.03730378 -27.19752427 87.23282507 -29.36909485 89.42570496 C-35.5417424 95.66253576 -41.69613442 101.91723485 -47.8425293 108.17993164 C-51.6036168 112.01074832 -55.37698807 115.82911742 -59.15784645 119.6404171 C-60.59272522 121.0920146 -62.02277735 122.54840037 -63.44775963 124.00971413 C-65.44813279 126.06083722 -67.46373422 128.09582457 -69.4831543 130.12817383 C-70.06166138 130.72937042 -70.64016846 131.33056702 -71.23620605 131.94998169 C-77.4614472 138.14710758 -85.24045394 141.66135688 -94.0625 141.9375 C-103.02702277 141.80547463 -110.40712623 138.59508241 -116.84765625 132.41796875 C-123.88386387 124.78293495 -124.97631517 117.40332992 -124.80859375 107.3203125 C-123.75749081 94.73368743 -113.64578944 86.62449623 -105.21313477 78.16113281 C-104.41541656 77.35684341 -103.61769836 76.55255402 -102.79580688 75.72389221 C-100.18055713 73.08908542 -97.56143974 70.4581745 -94.94140625 67.828125 C-94.04210829 66.92475151 -93.14281033 66.02137802 -92.21626091 65.09062958 C-87.95143879 60.80716262 -83.68459751 56.52573168 -79.41463429 52.24739099 C-74.50770571 47.33067084 -69.60919322 42.40575874 -64.71756321 37.47381902 C-60.45953729 33.18192609 -56.19052302 28.90113013 -51.91755486 24.62410736 C-50.10933639 22.81102451 -48.30449171 20.99457024 -46.50314522 19.17465973 C-43.98352654 16.63067718 -41.45155387 14.09963694 -38.91625977 11.57128906 C-38.17990799 10.82212723 -37.44355621 10.07296539 -36.68489075 9.30110168 C-27.13870845 -0.15028422 -13.19201312 -5.38294788 0 0 Z " fill="#3288FE" transform="translate(275.5,47.375)"/>
<path d="M0 0 C0.33 0.66 0.66 1.32 1 2 C0.22265625 3.70703125 0.22265625 3.70703125 -0.9375 5.8125 C-4.03932524 12.60386473 -4.6014746 19.62231763 -2.01782227 26.68481445 C1.84628792 35.30270967 7.55687486 41.22046235 14.3125 47.5625 C15.83587524 49.01545802 17.35464949 50.47284917 18.86845398 51.93577576 C20.22448955 53.24286814 21.59297806 54.53700533 22.9621582 55.83032227 C25 58 25 58 26 61 C3.61895854 83.49516004 -18.7748923 105.97746935 -41.18667388 128.44200052 C-43.83393589 131.0955159 -46.48108863 133.74914027 -49.12817383 136.40283203 C-49.65515185 136.9311216 -50.18212987 137.45941118 -50.72507692 138.00370952 C-59.25211803 146.55249375 -67.77028075 155.110072 -76.28518205 163.67094603 C-85.02562447 172.45818347 -93.77557092 181.23587276 -102.53437048 190.00481296 C-107.93661081 195.41390611 -113.33134515 200.83026679 -118.71664483 206.25622717 C-122.85028702 210.41947982 -126.9971368 214.56940318 -131.14897537 218.71451378 C-132.8476196 220.41453241 -134.54199034 222.11883364 -136.2317028 223.82773018 C-138.54240669 226.16337256 -140.8681062 228.48300553 -143.19810486 230.79937744 C-144.19182827 231.81494717 -144.19182827 231.81494717 -145.2056269 232.85103345 C-151.69562844 239.23920436 -159.37000818 243.02476138 -168.5625 243.3125 C-177.52702277 243.18047463 -184.90712623 239.97008241 -191.34765625 233.79296875 C-198.38386387 226.15793495 -199.47631517 218.77832992 -199.30859375 208.6953125 C-198.26866922 196.24254533 -188.40136441 188.2467823 -180.02101135 179.90075684 C-179.24732253 179.12621359 -178.47363372 178.35167035 -177.67649978 177.5536561 C-175.10253551 174.97805441 -172.52503139 172.40602568 -169.94750977 169.83398438 C-168.09406917 167.98082606 -166.24084915 166.12744711 -164.38783264 164.27386475 C-160.40787297 160.29338257 -156.42609709 156.31472484 -152.44305611 152.33732605 C-146.68436088 146.58678299 -140.92845279 140.83345675 -135.17320537 135.0794633 C-125.83397994 125.74242257 -116.49252692 116.40761381 -107.1496582 107.07421875 C-98.07784366 98.01159341 -89.00708759 88.94791079 -79.93774414 79.8828125 C-79.37802804 79.32335912 -78.81831193 78.76390574 -78.24163473 78.18749923 C-75.43350655 75.38067614 -72.62539906 72.57383235 -69.81730187 69.76697826 C-46.54807635 46.50810721 -23.27522954 23.25286283 0 0 Z " fill="#2864F0" transform="translate(215,246)"/>
<path d="M0 0 C12.16888218 6.50211144 23.33838409 15.27465851 34.6015625 23.19140625 C38.82058787 26.15420496 43.05915937 29.08674544 47.3125 32 C54.89191257 37.19299431 62.43323043 42.44005184 69.96923828 47.69580078 C74.42762753 50.80275707 78.89078252 53.90068452 83.38671875 56.953125 C84.12019531 57.45199219 84.85367188 57.95085937 85.609375 58.46484375 C86.94665293 59.37228235 88.28631707 60.27621949 89.62890625 61.17578125 C92.91622062 63.40799691 95.80043469 65.70437848 98.5 68.625 C97.83355469 68.46773438 97.16710937 68.31046875 96.48046875 68.1484375 C92.91770264 67.52273546 89.41946222 67.32564649 85.8125 67.25 C85.15572266 67.21261719 84.49894531 67.17523438 83.82226562 67.13671875 C75.85068905 66.99808264 69.86377731 70.28862846 64.14672852 75.67724609 C60.38744471 79.36934872 56.75018073 83.17682501 53.125 87 C50.65235091 89.60541725 48.16366939 92.19390441 45.6640625 94.7734375 C45.10361237 95.37537933 44.54316223 95.97732117 43.96572876 96.59750366 C42.36572266 98.24755859 42.36572266 98.24755859 39.5 100.625 C36.25291603 100.18304778 34.08959285 98.8764309 31.41015625 97.03515625 C30.63212646 96.50293457 29.85409668 95.97071289 29.05249023 95.42236328 C28.23079346 94.8498584 27.40909668 94.27735352 26.5625 93.6875 C25.29031616 92.80940674 25.29031616 92.80940674 23.99243164 91.91357422 C17.97881892 87.73291475 12.15030575 83.36418918 6.375 78.86328125 C3.58356012 76.69005428 0.78544893 74.53620655 -2.0625 72.4375 C-2.82691406 71.86644531 -3.59132813 71.29539062 -4.37890625 70.70703125 C-6.39911448 69.42150295 -6.39911448 69.42150295 -8.44968891 69.89493847 C-11.99099439 71.15590365 -14.30361658 74.08611627 -16.86987305 76.73364258 C-17.49973618 77.37109909 -18.1295993 78.0085556 -18.77854919 78.66532898 C-20.14589862 80.05079189 -21.50983807 81.43962654 -22.87076378 82.83139992 C-25.0291081 85.03730378 -27.19752427 87.23282507 -29.36909485 89.42570496 C-35.5417424 95.66253576 -41.69613442 101.91723485 -47.8425293 108.17993164 C-51.6036168 112.01074832 -55.37698807 115.82911742 -59.15784645 119.6404171 C-60.59272522 121.0920146 -62.02277735 122.54840037 -63.44775963 124.00971413 C-65.44813279 126.06083722 -67.46373422 128.09582457 -69.4831543 130.12817383 C-70.35091492 131.02996872 -70.35091492 131.02996872 -71.23620605 131.94998169 C-77.4614472 138.14710758 -85.24045394 141.66135688 -94.0625 141.9375 C-103.02702277 141.80547463 -110.40712623 138.59508241 -116.84765625 132.41796875 C-123.88386387 124.78293495 -124.97631517 117.40332992 -124.80859375 107.3203125 C-123.75749081 94.73368743 -113.64578944 86.62449623 -105.21313477 78.16113281 C-104.41541656 77.35684341 -103.61769836 76.55255402 -102.79580688 75.72389221 C-100.18055713 73.08908542 -97.56143974 70.4581745 -94.94140625 67.828125 C-94.04210829 66.92475151 -93.14281033 66.02137802 -92.21626091 65.09062958 C-87.95143879 60.80716262 -83.68459751 56.52573168 -79.41463429 52.24739099 C-74.50770571 47.33067084 -69.60919322 42.40575874 -64.71756321 37.47381902 C-60.45953729 33.18192609 -56.19052302 28.90113013 -51.91755486 24.62410736 C-50.10933639 22.81102451 -48.30449171 20.99457024 -46.50314522 19.17465973 C-43.98352654 16.63067718 -41.45155387 14.09963694 -38.91625977 11.57128906 C-37.8117321 10.44754631 -37.8117321 10.44754631 -36.68489075 9.30110168 C-27.13870845 -0.15028422 -13.19201312 -5.38294788 0 0 Z " fill="#2864F0" transform="translate(275.5,47.375)"/>
<path d="M0 0 C8.90711185 7.41777334 16.01675127 17.32063266 17.21948242 29.16064453 C18.00903826 44.70347323 15.2530796 55.93346345 5.2578125 68.125 C-2.91347857 77.07612383 -13.52535426 81.14712682 -25.38671875 82.21484375 C-37.89335194 82.7183314 -48.85073834 78.95384941 -58.40625 70.99609375 C-66.79874369 63.17708713 -72.74393767 53.20070814 -73.3359375 41.546875 C-73.63210381 25.81751504 -70.14159667 14.60661419 -59.375 2.8125 C-43.48531351 -12.37973842 -17.29150781 -13.17036512 0 0 Z " fill="#3389FF" transform="translate(464,32)"/>
<path d="M0 0 C0.81010025 -0.0049649 1.6202005 -0.00992981 2.45484924 -0.01504517 C5.13681893 -0.02965865 7.81872945 -0.03646765 10.50073242 -0.04199219 C12.36537172 -0.04774458 14.230011 -0.0535023 16.09465027 -0.05926514 C20.00613684 -0.06977299 23.91760286 -0.07561698 27.82910156 -0.07910156 C32.83606337 -0.08458397 37.84275293 -0.1086075 42.8496294 -0.13707352 C46.70241585 -0.15571722 50.55513696 -0.16090643 54.40796471 -0.16243744 C56.2535113 -0.16546089 58.09905683 -0.17347904 59.9445591 -0.18662262 C62.52965497 -0.20371838 65.11408895 -0.20179428 67.69921875 -0.1953125 C68.83798462 -0.20913467 68.83798462 -0.20913467 69.99975586 -0.22323608 C74.76194147 -0.18591895 78.00252966 0.63770741 82.04370117 3.16113281 C86.7154746 8.33796283 87.39153528 11.5546678 87.32885742 18.39550781 C86.83260597 23.20846711 84.50555532 25.8764731 80.98120117 28.97363281 C76.82545924 31.52070045 72.79375726 31.31539069 68.08740234 31.32226562 C67.27730209 31.32723053 66.46720184 31.33219543 65.6325531 31.33731079 C62.95058342 31.35192427 60.26867289 31.35873327 57.58666992 31.36425781 C55.72203062 31.3700102 53.85739134 31.37576793 51.99275208 31.38153076 C48.08126551 31.39203862 44.16979948 31.39788261 40.25830078 31.40136719 C35.25133897 31.4068496 30.24464941 31.43087312 25.23777294 31.45933914 C21.3849865 31.47798284 17.53226538 31.48317206 13.67943764 31.48470306 C11.83389104 31.48772651 9.98834551 31.49574466 8.14284325 31.50888824 C5.55774738 31.52598401 2.9733134 31.52405991 0.38818359 31.51757812 C-0.37099365 31.52679291 -1.1301709 31.53600769 -1.91235352 31.54550171 C-6.67453912 31.50818458 -9.91512732 30.68455821 -13.95629883 28.16113281 C-18.62807226 22.98430279 -19.30413293 19.76759783 -19.24145508 12.92675781 C-18.74520363 8.11379852 -16.41815298 5.44579252 -12.89379883 2.34863281 C-8.73805689 -0.19843483 -4.70635492 0.00687493 0 0 Z " fill="#19CFFC" transform="translate(48.956298828125,187.8388671875)"/>
<path d="M0 0 C0.81010025 -0.0049649 1.6202005 -0.00992981 2.45484924 -0.01504517 C5.13681893 -0.02965865 7.81872945 -0.03646765 10.50073242 -0.04199219 C12.36537172 -0.04774458 14.230011 -0.0535023 16.09465027 -0.05926514 C20.00613684 -0.06977299 23.91760286 -0.07561698 27.82910156 -0.07910156 C32.83606337 -0.08458397 37.84275293 -0.1086075 42.8496294 -0.13707352 C46.70241585 -0.15571722 50.55513696 -0.16090643 54.40796471 -0.16243744 C56.2535113 -0.16546089 58.09905683 -0.17347904 59.9445591 -0.18662262 C62.52965497 -0.20371838 65.11408895 -0.20179428 67.69921875 -0.1953125 C68.83798462 -0.20913467 68.83798462 -0.20913467 69.99975586 -0.22323608 C74.76194147 -0.18591895 78.00252966 0.63770741 82.04370117 3.16113281 C86.7154746 8.33796283 87.39153528 11.5546678 87.32885742 18.39550781 C86.83260597 23.20846711 84.50555532 25.8764731 80.98120117 28.97363281 C76.82545924 31.52070045 72.79375726 31.31539069 68.08740234 31.32226562 C67.27730209 31.32723053 66.46720184 31.33219543 65.6325531 31.33731079 C62.95058342 31.35192427 60.26867289 31.35873327 57.58666992 31.36425781 C55.72203062 31.3700102 53.85739134 31.37576793 51.99275208 31.38153076 C48.08126551 31.39203862 44.16979948 31.39788261 40.25830078 31.40136719 C35.25133897 31.4068496 30.24464941 31.43087312 25.23777294 31.45933914 C21.3849865 31.47798284 17.53226538 31.48317206 13.67943764 31.48470306 C11.83389104 31.48772651 9.98834551 31.49574466 8.14284325 31.50888824 C5.55774738 31.52598401 2.9733134 31.52405991 0.38818359 31.51757812 C-0.37099365 31.52679291 -1.1301709 31.53600769 -1.91235352 31.54550171 C-6.67453912 31.50818458 -9.91512732 30.68455821 -13.95629883 28.16113281 C-18.62807226 22.98430279 -19.30413293 19.76759783 -19.24145508 12.92675781 C-18.74520363 8.11379852 -16.41815298 5.44579252 -12.89379883 2.34863281 C-8.73805689 -0.19843483 -4.70635492 0.00687493 0 0 Z " fill="#19CEFB" transform="translate(18.956298828125,127.8388671875)"/>
<path d="M0 0 C0.81010025 -0.0049649 1.6202005 -0.00992981 2.45484924 -0.01504517 C5.13681893 -0.02965865 7.81872945 -0.03646765 10.50073242 -0.04199219 C12.36537172 -0.04774458 14.230011 -0.0535023 16.09465027 -0.05926514 C20.00613684 -0.06977299 23.91760286 -0.07561698 27.82910156 -0.07910156 C32.83606337 -0.08458397 37.84275293 -0.1086075 42.8496294 -0.13707352 C46.70241585 -0.15571722 50.55513696 -0.16090643 54.40796471 -0.16243744 C56.2535113 -0.16546089 58.09905683 -0.17347904 59.9445591 -0.18662262 C62.52965497 -0.20371838 65.11408895 -0.20179428 67.69921875 -0.1953125 C68.83798462 -0.20913467 68.83798462 -0.20913467 69.99975586 -0.22323608 C74.76194147 -0.18591895 78.00252966 0.63770741 82.04370117 3.16113281 C86.7154746 8.33796283 87.39153528 11.5546678 87.32885742 18.39550781 C86.83260597 23.20846711 84.50555532 25.8764731 80.98120117 28.97363281 C76.82545924 31.52070045 72.79375726 31.31539069 68.08740234 31.32226562 C67.27730209 31.32723053 66.46720184 31.33219543 65.6325531 31.33731079 C62.95058342 31.35192427 60.26867289 31.35873327 57.58666992 31.36425781 C55.72203062 31.3700102 53.85739134 31.37576793 51.99275208 31.38153076 C48.08126551 31.39203862 44.16979948 31.39788261 40.25830078 31.40136719 C35.25133897 31.4068496 30.24464941 31.43087312 25.23777294 31.45933914 C21.3849865 31.47798284 17.53226538 31.48317206 13.67943764 31.48470306 C11.83389104 31.48772651 9.98834551 31.49574466 8.14284325 31.50888824 C5.55774738 31.52598401 2.9733134 31.52405991 0.38818359 31.51757812 C-0.37099365 31.52679291 -1.1301709 31.53600769 -1.91235352 31.54550171 C-6.67453912 31.50818458 -9.91512732 30.68455821 -13.95629883 28.16113281 C-18.62807226 22.98430279 -19.30413293 19.76759783 -19.24145508 12.92675781 C-18.74520363 8.11379852 -16.41815298 5.44579252 -12.89379883 2.34863281 C-8.73805689 -0.19843483 -4.70635492 0.00687493 0 0 Z " fill="#19CEFB" transform="translate(48.956298828125,67.8388671875)"/>
</svg>
