<?xml version="1.0" encoding="UTF-8"?>
<svg version="1.1" xmlns="http://www.w3.org/2000/svg" width="512" height="512">
<path d="M0 0 C168.96 0 337.92 0 512 0 C512 112.86 512 225.72 512 342 C343.04 342 174.08 342 0 342 C0 229.14 0 116.28 0 0 Z " fill="#0052B4" transform="translate(0,85)"/>
<path d="M0 0 C7.0846024 0.16033118 14.16825363 0.19057209 21.25441197 0.21551267 C33.88269633 0.26324537 46.50779142 0.40847691 59.13435141 0.61817014 C71.37377901 0.82121822 83.61232497 0.97613379 95.85310141 1.06934201 C96.61975577 1.07523796 97.38641014 1.0811339 98.17629645 1.08720851 C104.1752006 1.13297633 110.17412349 1.17602147 116.17305378 1.21820891 C145.39916772 1.42443338 174.61726432 1.86729415 203.84260336 2.27783811 C203.84260336 58.70783811 203.84260336 115.13783811 203.84260336 173.27783811 C34.88260336 173.27783811 -134.07739664 173.27783811 -308.15739664 173.27783811 C-305.2095282 170.91954335 -302.4374129 168.71347727 -299.34074625 166.62183225 C-298.62047754 166.13396741 -297.90020883 165.64610257 -297.1581138 165.14345395 C-296.38315057 164.62190229 -295.60818735 164.10035062 -294.80974039 163.56299436 C-293.98269098 163.00426129 -293.15564157 162.44552823 -292.30353006 161.86986386 C-289.56904711 160.02411122 -286.83212475 158.18201685 -284.09489664 156.34033811 C-283.14590494 155.70080197 -282.19691324 155.06126584 -281.21916422 154.40234983 C-266.0147102 144.15782739 -250.73241796 134.0358965 -235.4078544 123.97220456 C-221.75699347 115.00539008 -208.18193499 105.93397277 -194.65739664 96.77783811 C-180.22465918 87.00685116 -165.72624506 77.34468675 -151.15739664 67.77783811 C-133.96078418 56.48440647 -116.83922661 45.08404157 -99.8369201 33.49959123 C-98.17401029 32.37982258 -96.50034356 31.27576648 -94.81355127 30.19230783 C-90.11682541 27.13802472 -85.73077591 23.98022975 -81.56319132 20.24585521 C-57.096355 -1.46266742 -31.34287075 -0.72912989 0 0 Z " fill="#D80027" transform="translate(308.1573966369033,253.72216189280152)"/>
<path d="M0 0 C8.99838326 4.49919163 8.99838326 4.49919163 12.15722656 6.65600586 C12.87726868 7.1438707 13.59731079 7.63173553 14.33917236 8.13438416 C15.47839142 8.91671165 15.47839142 8.91671165 16.640625 9.71484375 C17.46342957 10.27357681 18.28623413 10.83230988 19.13397217 11.40797424 C20.91112977 12.61506482 22.68690446 13.82419346 24.46142578 15.03515625 C29.28423765 18.32524118 34.11854271 21.59833878 38.953125 24.87109375 C39.95218872 25.54768036 40.95125244 26.22426697 41.98059082 26.9213562 C52.26060253 33.87216583 62.62481917 40.69243541 73 47.5 C88.47101947 57.65682625 103.85195887 67.93725539 119.17724609 78.3125 C132.71892064 87.47689306 146.33221487 96.52488869 160 105.5 C176.66463846 116.44388916 193.23058036 127.52550057 209.74536133 138.6940918 C211.49038205 139.8742085 213.23541765 141.05430321 214.98046875 142.234375 C216.24897423 143.09226372 216.24897423 143.09226372 217.54310608 143.96748352 C225.90181108 149.61665527 234.28941938 155.22207851 242.6875 160.8125 C243.33281677 161.24209015 243.97813354 161.6716803 244.64300537 162.11428833 C248.0942089 164.41122501 251.54651462 166.70649498 255 169 C253.87649315 172.37052055 253.38326247 172.69333942 250.52978516 174.54248047 C249.78600616 175.03042084 249.04222717 175.51836121 248.27590942 176.02108765 C247.45524994 176.5478006 246.63459045 177.07451355 245.7890625 177.6171875 C244.93142303 178.17733551 244.07378357 178.73748352 243.19015503 179.31460571 C241.32311362 180.53310006 239.45371153 181.74798297 237.58227539 182.9597168 C232.52549226 186.23474889 227.48638574 189.53679646 222.4453125 192.8359375 C220.88535553 193.85545502 220.88535553 193.85545502 219.29388428 194.89556885 C208.95843035 201.65970798 198.72389226 208.56889683 188.5 215.5 C173.15738384 225.89082412 157.72892865 236.14164458 142.23974609 246.3125 C127.69459594 255.8668439 113.24212197 265.55015192 98.83181763 275.30645752 C84.18877634 285.21679898 69.45782989 294.98625175 54.67559814 304.68759155 C44.99165957 311.04369577 35.3275205 317.42364715 25.74609375 323.93359375 C24.9425798 324.47941101 24.13906586 325.02522827 23.311203 325.58758545 C19.54358973 328.14975722 15.78122925 330.71929646 12.02514648 333.29833984 C10.71210004 334.19502098 9.39903176 335.09167014 8.0859375 335.98828125 C7.49239975 336.39920517 6.898862 336.81012909 6.28733826 337.23350525 C2.22594972 340 2.22594972 340 0 340 C0 227.8 0 115.6 0 0 Z " fill="#EFEFEF" transform="translate(0,86)"/>
<path d="M0 0 C0.66 0 1.32 0 2 0 C3.48046875 1.50390625 3.48046875 1.50390625 5.1875 3.5625 C7.58920401 6.39450931 10.03327878 9.09048182 12.6875 11.6875 C15.35318 14.30514973 17.73987079 17.01662944 20 20 C23.22011663 18.59852597 25.21123827 16.96526554 27.56640625 14.375 C28.5419043 13.31539062 28.5419043 13.31539062 29.53710938 12.234375 C30.20548828 11.49703125 30.87386719 10.7596875 31.5625 10 C32.89437814 8.53914805 34.22890798 7.08070814 35.56640625 5.625 C36.15365479 4.97789062 36.74090332 4.33078125 37.34594727 3.6640625 C39 2 39 2 42 0 C42.51139597 3.14408784 43.00696036 6.29048573 43.5 9.4375 C43.64308594 10.31599609 43.78617187 11.19449219 43.93359375 12.09960938 C44.81809002 17.80671625 45.14099827 23.22494572 45 29 C45.73114014 28.84853516 46.46228027 28.69707031 47.21557617 28.54101562 C50.5385268 27.85559939 53.86297304 27.17772726 57.1875 26.5 C58.33798828 26.26152344 59.48847656 26.02304688 60.67382812 25.77734375 C61.78564453 25.55175781 62.89746094 25.32617188 64.04296875 25.09375 C65.06414795 24.88427734 66.08532715 24.67480469 67.13745117 24.45898438 C69.81924732 24.02898209 72.29051865 23.91294839 75 24 C70.50983457 33.10316213 65.8677651 42.09302557 61 51 C62.134375 51.33 63.26875 51.66 64.4375 52 C72.25485905 54.57646078 79.60307486 58.42467797 87 62 C87 62.66 87 63.32 87 64 C83.04447897 65.83944626 79.08513715 67.67051553 75.125 69.5 C73.99707031 70.02464844 72.86914062 70.54929687 71.70703125 71.08984375 C70.09248047 71.83427734 70.09248047 71.83427734 68.4453125 72.59375 C67.45031738 73.05458984 66.45532227 73.51542969 65.43017578 73.99023438 C63 75 63 75 61 75 C61.3403125 75.6084375 61.680625 76.216875 62.03125 76.84375 C66.60147006 85.1090416 70.81549395 93.53540274 75 102 C68.44151546 101.25826663 61.9880122 100.14229492 55.5 98.9375 C54.48679687 98.75123047 53.47359375 98.56496094 52.4296875 98.37304688 C49.95274538 97.91738299 47.47620374 97.4596565 45 97 C45.0309375 98.26714844 45.061875 99.53429687 45.09375 100.83984375 C45.09375 106.18005449 44.35690068 111.30143863 43.5 116.5625 C43.35691406 117.47580078 43.21382813 118.38910156 43.06640625 119.33007812 C42.71703202 121.55442736 42.36148178 123.7775921 42 126 C36.9663614 121.83201899 32.45586145 117.45719319 28.0625 112.625 C27.47404297 111.98433594 26.88558594 111.34367187 26.27929688 110.68359375 C24.8492747 109.12568342 23.42411391 107.56331302 22 106 C17.97742833 107.83344976 15.45876307 110.48323836 12.5625 113.75 C12.09779297 114.26304687 11.63308594 114.77609375 11.15429688 115.3046875 C8.77936019 117.94129783 6.49598033 120.62119379 4.27734375 123.390625 C3.52582031 124.25171875 2.77429688 125.1128125 2 126 C1.34 126 0.68 126 0 126 C-0.50790159 122.48026001 -1.00488523 118.95905958 -1.5 115.4375 C-1.64308594 114.44685547 -1.78617188 113.45621094 -1.93359375 112.43554688 C-2.65920623 107.23532412 -3.17673411 102.25047582 -3 97 C-3.73637695 97.15146484 -4.47275391 97.30292969 -5.23144531 97.45898438 C-8.57015058 98.14336105 -11.91004625 98.82174375 -15.25 99.5 C-16.98830078 99.85771484 -16.98830078 99.85771484 -18.76171875 100.22265625 C-20.43427734 100.56103516 -20.43427734 100.56103516 -22.140625 100.90625 C-23.16704102 101.11572266 -24.19345703 101.32519531 -25.25097656 101.54101562 C-28 102 -28 102 -32 102 C-30.43580884 96.44935595 -27.78520379 91.77886318 -24.9375 86.8125 C-24.02766551 85.21614243 -23.12001645 83.61853677 -22.21484375 82.01953125 C-21.81386475 81.31932861 -21.41288574 80.61912598 -20.99975586 79.89770508 C-19.86739328 77.87285063 -19.86739328 77.87285063 -19 75 C-20.7015625 74.505 -20.7015625 74.505 -22.4375 74 C-30.25485905 71.42353922 -37.60307486 67.57532203 -45 64 C-45 63.34 -45 62.68 -45 62 C-41.04447897 60.16055374 -37.08513715 58.32948447 -33.125 56.5 C-31.99707031 55.97535156 -30.86914062 55.45070312 -29.70703125 54.91015625 C-28.63066406 54.41386719 -27.55429687 53.91757813 -26.4453125 53.40625 C-25.45031738 52.94541016 -24.45532227 52.48457031 -23.43017578 52.00976562 C-21 51 -21 51 -19 51 C-24.81557325 39.15363306 -24.81557325 39.15363306 -31.1875 27.6015625 C-32 26 -32 26 -32 24 C-25.37386221 24.64036937 -18.95287291 25.70971164 -12.4375 27.0625 C-11.52419922 27.24876953 -10.61089844 27.43503906 -9.66992188 27.62695312 C-7.44585955 28.08108103 -5.22260724 28.538813 -3 29 C-2.95101562 28.07960937 -2.90203125 27.15921875 -2.8515625 26.2109375 C-2.32982037 17.37730345 -1.38814129 8.74663783 0 0 Z " fill="#FEDA45" transform="translate(74,193)"/>
<path d="M0 0 C8 8 8 8 8 11 C9.24716797 10.566875 9.24716797 10.566875 10.51953125 10.125 C11.60621094 9.75375 12.69289063 9.3825 13.8125 9 C14.89144531 8.62875 15.97039063 8.2575 17.08203125 7.875 C20 7 20 7 23 7 C21.46096383 10.49780948 19.30911521 13.26475861 16.92578125 16.21875 C15.82134531 17.95645229 15.82134531 17.95645229 16.1640625 19.953125 C17.15594619 22.38184954 18.4458386 24.18617693 20.0625 26.25 C20.88427734 27.30960938 20.88427734 27.30960938 21.72265625 28.390625 C22.35494141 29.18726563 22.35494141 29.18726563 23 30 C22.67 30.66 22.34 31.32 22 32 C17.38 30.35 12.76 28.7 8 27 C7.34 28.32 6.68 29.64 6 31 C5.01030923 32.4385956 3.98849332 33.85556169 2.9375 35.25 C2.41027344 35.95640625 1.88304687 36.6628125 1.33984375 37.390625 C0.89769531 37.92171875 0.45554687 38.4528125 0 39 C-0.33 39 -0.66 39 -1 39 C-1.495 31.575 -1.495 31.575 -2 24 C-5.96 22.68 -9.92 21.36 -14 20 C-14 19.34 -14 18.68 -14 18 C-12.60764957 17.49038154 -11.21090882 16.99275091 -9.8125 16.5 C-9.03519531 16.2215625 -8.25789062 15.943125 -7.45703125 15.65625 C-5 15 -5 15 0 15 C0 10.05 0 5.1 0 0 Z " fill="#FEDB4D" transform="translate(22,119)"/>
<path d="M0 0 C5.80205656 5.64524422 5.80205656 5.64524422 8 9 C8 9.66 8 10.32 8 11 C8.83144531 10.69964844 9.66289062 10.39929688 10.51953125 10.08984375 C11.60621094 9.70957031 12.69289063 9.32929688 13.8125 8.9375 C14.89144531 8.55464844 15.97039063 8.17179687 17.08203125 7.77734375 C20 7 20 7 23 8 C22.47148438 8.66386719 21.94296875 9.32773437 21.3984375 10.01171875 C20.73070312 10.89472656 20.06296875 11.77773438 19.375 12.6875 C18.36566406 13.99267578 18.36566406 13.99267578 17.3359375 15.32421875 C15.68460426 17.9132494 15.68460426 17.9132494 16.625 20.59375 C17.86751973 22.76815952 19.12939337 24.80523847 20.625 26.8125 C21.40875 27.864375 22.1925 28.91625 23 30 C22.67 30.66 22.34 31.32 22 32 C17.38 30.35 12.76 28.7 8 27 C7.34 28.32 6.68 29.64 6 31 C5.17273195 32.26796225 4.31872004 33.51892245 3.4375 34.75 C2.78587891 35.67039062 2.78587891 35.67039062 2.12109375 36.609375 C1.56615234 37.29773438 1.56615234 37.29773438 1 38 C0.67 38 0.34 38 0 38 C0 33.05 0 28.1 0 23 C-1.19625 22.896875 -2.3925 22.79375 -3.625 22.6875 C-7.5624176 22.21108648 -10.54140375 20.98869284 -14 19 C-9.62655999 16.08437333 -5.08327203 15.31567041 0 14 C0 9.38 0 4.76 0 0 Z " fill="#FEDA4A" transform="translate(22,355)"/>
<path d="M0 0 C0.33 0 0.66 0 1 0 C1.495 6.93 1.495 6.93 2 14 C5.96 15.32 9.92 16.64 14 18 C14 18.66 14 19.32 14 20 C12.56445975 20.50559908 11.1264798 21.0042749 9.6875 21.5 C8.88699219 21.7784375 8.08648437 22.056875 7.26171875 22.34375 C5 23 5 23 2 23 C2 28.28 2 33.56 2 39 C-1.87961647 35.12038353 -4.2157554 32.43416733 -7 28 C-7.88751953 28.19916016 -7.88751953 28.19916016 -8.79296875 28.40234375 C-12.85446525 29.31005178 -16.91374171 30.2091113 -21 31 C-19.94816387 27.93214462 -18.97070373 25.96651855 -16.8125 23.5 C-14.72625032 21.19396451 -14.72625032 21.19396451 -15.1953125 18.64453125 C-16.08537505 15.71942278 -17.3102768 13.6853501 -19.0625 11.1875 C-20.5165625 9.1146875 -20.5165625 9.1146875 -22 7 C-17.05 7.99 -12.1 8.98 -7 10 C-5.865625 8.35 -4.73125 6.7 -3.5625 5 C-2.40313035 3.31364415 -1.22223175 1.64136638 0 0 Z " fill="#FEDA49" transform="translate(209,237)"/>
</svg>
